<?xml version="1.0" encoding="UTF-8"?>
<!DOCTYPE svg PUBLIC "-//W3C//DTD SVG 1.1//EN" "http://www.w3.org/Graphics/SVG/1.1/DTD/svg11.dtd">
<svg xmlns="http://www.w3.org/2000/svg" version="1.1" width="560px" height="560px" style="shape-rendering:geometricPrecision; text-rendering:geometricPrecision; image-rendering:optimizeQuality; fill-rule:evenodd; clip-rule:evenodd" xmlns:xlink="http://www.w3.org/1999/xlink">
<g><path style="opacity:0.998" fill="#010101" d="M -0.5,-0.5 C 186.167,-0.5 372.833,-0.5 559.5,-0.5C 559.5,186.167 559.5,372.833 559.5,559.5C 372.833,559.5 186.167,559.5 -0.5,559.5C -0.5,372.833 -0.5,186.167 -0.5,-0.5 Z"/></g>
<g><path style="opacity:1" fill="#e6e8e8" d="M 222.5,437.5 C 223.5,437.5 224.5,437.5 225.5,437.5C 225.264,448.042 225.93,458.376 227.5,468.5C 226.99,473.434 225.99,478.267 224.5,483C 220.106,485.374 215.44,486.041 210.5,485C 121.296,448.587 74.2957,382.087 69.5,285.5C 70.976,206.599 104.643,145.766 170.5,103C 241.545,64.3406 312.878,63.674 384.5,101C 456.305,146.922 490.805,212.755 488,298.5C 481.908,372.545 447.408,429.045 384.5,468C 372.556,474.471 360.223,480.138 347.5,485C 340.333,488.351 335.166,486.518 332,479.5C 331.583,453.493 330.917,427.493 330,401.5C 328.334,392.85 324.5,385.35 318.5,379C 337.315,375.951 355.315,370.284 372.5,362C 397.364,343.773 410.864,319.273 413,288.5C 416.12,261.968 409.453,238.302 393,217.5C 392.712,213.054 393.378,208.721 395,204.5C 396.954,189.634 395.121,175.301 389.5,161.5C 383.137,160.24 376.804,160.407 370.5,162C 357.244,167.294 344.578,173.628 332.5,181C 331.333,181.167 330.167,181.333 329,181.5C 295.372,173.531 261.705,173.531 228,181.5C 215.378,174.442 202.211,168.275 188.5,163C 182.321,160.832 175.988,160.166 169.5,161C 161.445,179.074 160.445,197.574 166.5,216.5C 160.847,224.46 155.681,232.793 151,241.5C 139.215,279.582 144.881,314.916 168,347.5C 178.448,357.976 190.615,365.809 204.5,371C 216.178,373.842 227.845,376.676 239.5,379.5C 233.071,387.435 228.737,396.435 226.5,406.5C 198.559,418.623 177.726,411.29 164,384.5C 154.912,372.816 143.078,367.316 128.5,368C 126.59,368.408 125.59,369.575 125.5,371.5C 125.94,374.214 127.274,376.38 129.5,378C 135.559,381.059 140.726,385.226 145,390.5C 151.428,400.352 157.095,410.685 162,421.5C 179.102,437.916 199.269,443.249 222.5,437.5 Z"/></g>
<g><path style="opacity:1" fill="#666767" d="M 227.5,468.5 C 225.93,458.376 225.264,448.042 225.5,437.5C 224.5,437.5 223.5,437.5 222.5,437.5C 223.751,435.78 225.251,435.447 227,436.5C 227.5,447.161 227.667,457.828 227.5,468.5 Z"/></g>
</svg>
